<svg xmlns="http://www.w3.org/2000/svg" version="1.0" preserveAspectRatio="xMidYMid meet" viewBox="179 170.18 436 215.82">

<g transform="translate(0.000000,556.000000) scale(0.100000,-0.100000)" fill="#000000" stroke="none">
<path d="M3857 3849 c-7 -4 -38 -9 -70 -13 -106 -12 -207 -38 -207 -54 0 -11 7 -12 28 -7 47 12 222 45 239 45 11 0 14 -6 9 -22 -49 -177 -86 -412 -89 -568 -3 -170 16 -158 25 15 7 150 34 332 73 483 13 52 25 95 27 97 1 2 67 7 146 11 78 4 142 11 142 16 0 10 -303 7 -323 -3z"/>
<path d="M4067 3779 c-41 -23 -101 -165 -148 -349 -54 -213 -28 -275 51 -121 68 131 90 153 90 87 0 -17 5 -48 11 -68 11 -43 43 -57 79 -38 16 9 25 9 33 1 24 -24 78 -6 146 49 27 22 41 50 26 50 -3 0 -28 -18 -56 -40 -61 -48 -109 -55 -109 -16 0 17 11 31 36 46 65 41 83 100 31 100 -33 0 -75 -44 -88 -94 -15 -58 -23 -71 -47 -74 -23 -4 -26 4 -37 90 -3 25 -13 52 -22 59 -13 11 -19 9 -42 -17 -14 -17 -43 -64 -64 -104 -21 -39 -41 -70 -43 -67 -13 12 22 110 66 181 93 155 146 278 134 311 -8 19 -27 25 -47 14z m8 -87 c-20 -55 -107 -214 -113 -208 -5 6 45 149 71 201 43 88 74 93 42 7z m162 -269 c-14 -15 -29 -24 -33 -21 -3 4 6 19 21 33 14 15 29 24 33 21 3 -4 -6 -19 -21 -33z"/>
<path d="M5298 3382 c-511 -1 -788 -6 -788 -12 0 -6 284 -11 808 -12 l807 -3 0 -813 0 -812 -2152 -3 -2153 -2 0 818 0 817 895 0 c590 0 895 3 895 10 0 7 -310 10 -910 10 l-910 0 0 -840 0 -840 2180 0 2180 0 0 843 0 842 -32 0 c-18 0 -387 -1 -820 -3z"/>
<path d="M2345 2925 c-5 -2 -22 -6 -37 -9 -15 -4 -44 -21 -64 -38 -68 -60 -82 -140 -39 -213 24 -43 73 -78 220 -163 84 -48 104 -69 111 -113 12 -76 -42 -129 -131 -129 -97 0 -175 62 -190 150 -13 76 -25 39 -25 -75 0 -70 4 -115 10 -115 6 0 10 6 10 14 0 23 23 25 85 5 73 -23 163 -24 213 -4 98 41 147 148 108 238 -21 49 -71 90 -186 152 -153 82 -191 129 -158 199 14 32 45 53 92 61 28 6 48 2 91 -19 59 -29 90 -68 103 -132 14 -69 27 -42 30 65 3 126 -2 146 -28 112 l-18 -25 -73 22 c-70 21 -100 25 -124 17z"/>
<path d="M2830 2829 c0 -79 12 -98 25 -40 12 53 47 75 131 79 l74 4 0 -295 c0 -294 0 -296 -22 -311 -12 -9 -33 -16 -45 -16 -13 0 -23 -4 -23 -10 0 -6 53 -10 140 -10 87 0 140 4 140 10 0 6 -11 10 -25 10 -14 0 -34 9 -45 20 -19 19 -20 33 -20 310 l0 290 60 0 c72 0 127 -20 139 -52 29 -76 30 -76 30 10 l1 82 -280 0 -280 0 0 -81z"/>
<path d="M3560 2900 c0 -5 8 -10 18 -10 35 0 67 -36 178 -207 l114 -174 0 -105 c0 -98 -2 -107 -25 -129 -13 -14 -36 -25 -50 -25 -14 0 -25 -4 -25 -10 0 -6 55 -10 145 -10 90 0 145 4 145 10 0 6 -11 10 -24 10 -13 0 -34 8 -47 18 -20 17 -23 29 -27 129 l-4 109 93 150 c98 157 163 234 197 234 11 0 24 5 27 10 4 6 -37 10 -114 10 -74 0 -121 -4 -121 -10 0 -5 9 -10 19 -10 30 0 53 -29 47 -56 -6 -21 -134 -233 -156 -257 -9 -11 -180 252 -180 277 0 14 35 36 56 36 13 0 24 5 24 10 0 6 -55 10 -145 10 -90 0 -145 -4 -145 -10z"/>
<path d="M4440 2900 c0 -5 13 -10 28 -10 16 0 37 -6 48 -14 18 -14 19 -29 19 -301 l0 -287 -24 -19 c-13 -10 -34 -19 -47 -19 -13 0 -24 -5 -24 -10 0 -7 89 -9 262 -8 l261 3 29 85 c15 46 28 88 28 92 0 20 -17 4 -40 -39 -42 -79 -62 -87 -206 -91 l-124 -4 -11 28 c-6 18 -9 120 -7 285 3 236 5 259 22 278 12 13 31 21 52 21 18 0 36 5 39 10 4 7 -48 10 -149 10 -97 0 -156 -4 -156 -10z"/>
<path d="M5180 2901 c0 -6 17 -11 37 -13 62 -5 64 -15 61 -326 l-3 -274 -24 -19 c-13 -10 -34 -19 -47 -19 -13 0 -24 -5 -24 -10 0 -7 89 -9 261 -8 l261 3 23 60 c33 89 37 105 28 105 -5 0 -23 -20 -41 -45 -51 -73 -80 -85 -202 -85 -58 0 -112 5 -120 10 -12 7 -16 38 -18 150 l-4 140 96 0 c121 0 142 -8 157 -60 7 -22 16 -40 21 -40 11 0 10 227 -1 234 -5 3 -12 -10 -15 -29 -11 -55 -35 -65 -154 -65 l-103 0 3 132 3 133 125 -3 c144 -4 161 -11 183 -74 l15 -43 1 78 1 77 -260 0 c-156 0 -260 -4 -260 -9z"/>
<path d="M3110 1930 c0 -48 1 -50 28 -50 42 0 53 12 48 51 -3 19 -5 37 -5 42 -1 4 -17 7 -36 7 l-35 0 0 -50z m58 23 c2 -8 -6 -13 -22 -13 -17 0 -26 5 -26 16 0 19 41 16 48 -3z m1 -37 c9 -11 8 -15 -5 -20 -29 -11 -44 -6 -44 14 0 23 31 27 49 6z"/>
<path d="M3382 1933 c3 -47 4 -48 38 -49 26 -1 28 -1 8 3 -26 4 -28 8 -28 49 0 24 -5 44 -11 44 -6 0 -9 -19 -7 -47z"/>
<path d="M3640 1961 c-15 -28 -12 -46 8 -64 27 -24 59 -21 78 8 15 23 15 27 0 50 -21 31 -70 35 -86 6z m68 -3 c18 -18 14 -46 -9 -58 -40 -22 -73 36 -35 62 16 11 30 10 44 -4z"/>
<path d="M3930 1959 c-17 -30 -4 -68 25 -75 35 -9 55 2 54 28 -1 16 -3 18 -6 6 -6 -24 -33 -31 -53 -13 -33 30 -2 73 43 59 13 -4 17 -2 13 5 -12 20 -64 13 -76 -10z"/>
<path d="M4210 1961 c-15 -29 -12 -46 9 -65 28 -25 66 -17 68 14 1 14 -1 18 -3 8 -12 -40 -64 -26 -64 17 0 26 23 39 53 29 13 -4 17 -2 13 5 -12 19 -64 13 -76 -8z"/>
<path d="M4490 1930 l0 -50 37 0 c39 0 40 12 1 14 -31 1 -29 28 2 37 l25 7 -27 1 c-40 1 -36 29 5 34 31 4 31 4 -5 5 l-38 2 0 -50z"/>
<path d="M4750 1936 c0 -25 5 -48 10 -51 6 -3 10 1 10 9 0 20 19 20 40 1 15 -14 17 -11 16 32 l-1 48 -37 3 -38 3 0 -45z m67 18 c6 -16 -12 -34 -34 -34 -7 0 -13 11 -13 25 0 18 5 25 20 25 11 0 23 -7 27 -16z"/>
</g>
</svg>